<svg width="20" height="20" viewBox="0 0 20 20" fill="none" xmlns="http://www.w3.org/2000/svg">
<path d="M9.99349 1.66406C8.34532 1.66406 6.73415 2.1528 5.36374 3.06848C3.99333 3.98416 2.92523 5.28565 2.2945 6.80837C1.66377 8.33108 1.49874 10.0066 1.82028 11.6231C2.14183 13.2397 2.9355 14.7245 4.10094 15.89C5.26637 17.0554 6.75123 17.8491 8.36774 18.1706C9.98425 18.4922 11.6598 18.3271 13.1825 17.6964C14.7052 17.0657 16.0067 15.9976 16.9224 14.6271C17.8381 13.2567 18.3268 11.6456 18.3268 9.9974C18.3268 8.90305 18.1113 7.81941 17.6925 6.80837C17.2737 5.79732 16.6599 4.87866 15.886 4.10484C15.1122 3.33102 14.1936 2.71719 13.1825 2.2984C12.1715 1.87961 11.0878 1.66406 9.99349 1.66406ZM12.6435 14.2907C12.6124 14.3686 12.565 14.4389 12.5045 14.4969C12.444 14.5549 12.3717 14.5993 12.2926 14.6271C12.2135 14.6549 12.1294 14.6654 12.0459 14.658C11.9624 14.6506 11.8814 14.6254 11.8085 14.5841L9.54599 12.8257L8.09433 14.1657C8.06063 14.1906 8.02122 14.2066 7.97973 14.2123C7.93823 14.218 7.89597 14.2131 7.85683 14.1982L8.13516 11.7074L8.14349 11.7149L8.14933 11.6657C8.14933 11.6657 12.2202 7.95906 12.386 7.80156C12.5543 7.64406 12.4985 7.6099 12.4985 7.6099C12.5085 7.41823 12.1977 7.6099 12.1977 7.6099L6.80349 11.0799L4.55766 10.3149C4.55766 10.3149 4.21266 10.1916 4.18016 9.91906C4.14599 9.64906 4.56849 9.5024 4.56849 9.5024L13.4993 5.95406C13.4993 5.95406 14.2335 5.6274 14.2335 6.16906L12.6435 14.2907Z" fill="#FF00D6"/>
</svg>
